<svg xmlns="http://www.w3.org/2000/svg" xmlns:xlink="http://www.w3.org/1999/xlink"
  style="margin:auto;background:rgba(NaN, NaN, NaN, 0);display:block;z-index:1;position:relative"
  width="1084" height="322" preserveAspectRatio="xMidYMid" viewBox="0 0 1084 322">
  <defs>
    <pattern id="filmstrip-blue-pattern" x="0" y="0" width="345.6" height="345.6"
      patternUnits="userSpaceOnUse">
      <g transform="scale(1.35)">
        <g>
          <!-- Replace first few lines with film strip rectangles -->
          <rect x="200" y="115" width="50" height="15" fill="#93dbe9" stroke="#689cc5" stroke-width="1" transform="rotate(45 225 122)"/>
          <rect x="203" y="117" width="2" height="2" fill="#000" opacity="0.3" transform="rotate(45 225 122)"/>
          <rect x="207" y="117" width="2" height="2" fill="#000" opacity="0.3" transform="rotate(45 225 122)"/>
          <rect x="211" y="117" width="2" height="2" fill="#000" opacity="0.3" transform="rotate(45 225 122)"/>
          <rect x="237" y="117" width="2" height="2" fill="#000" opacity="0.3" transform="rotate(45 225 122)"/>
          <rect x="241" y="117" width="2" height="2" fill="#000" opacity="0.3" transform="rotate(45 225 122)"/>
          <rect x="245" y="117" width="2" height="2" fill="#000" opacity="0.3" transform="rotate(45 225 122)"/>
          <rect x="203" y="126" width="2" height="2" fill="#000" opacity="0.3" transform="rotate(45 225 122)"/>
          <rect x="207" y="126" width="2" height="2" fill="#000" opacity="0.3" transform="rotate(45 225 122)"/>
          <rect x="211" y="126" width="2" height="2" fill="#000" opacity="0.3" transform="rotate(45 225 122)"/>
          <rect x="237" y="126" width="2" height="2" fill="#000" opacity="0.3" transform="rotate(45 225 122)"/>
          <rect x="241" y="126" width="2" height="2" fill="#000" opacity="0.3" transform="rotate(45 225 122)"/>
          <rect x="245" y="126" width="2" height="2" fill="#000" opacity="0.3" transform="rotate(45 225 122)"/>

          <rect x="455" y="115" width="50" height="15" fill="#93dbe9" stroke="#689cc5" stroke-width="1" transform="rotate(45 480 122)"/>
          <rect x="710" y="115" width="50" height="15" fill="#93dbe9" stroke="#689cc5" stroke-width="1" transform="rotate(45 735 122)"/>
          
          <rect x="180" y="195" width="60" height="18" fill="#689cc5" stroke="#5e6fa3" stroke-width="1" transform="rotate(45 210 204)"/>
          <rect x="435" y="195" width="60" height="18" fill="#689cc5" stroke="#5e6fa3" stroke-width="1" transform="rotate(45 465 204)"/>
          <rect x="690" y="195" width="60" height="18" fill="#689cc5" stroke="#5e6fa3" stroke-width="1" transform="rotate(45 720 204)"/>

          <animateTransform attributeName="transform" type="translate" values="0 0;-256 256"
            keyTimes="0;1" repeatCount="indefinite" dur="10s"></animateTransform>
        </g>
        <g>
          <rect x="220" y="90" width="40" height="12" fill="#5e6fa3" stroke="#93dbe9" stroke-width="0.8" transform="rotate(45 240 96)"/>
          <rect x="260" y="110" width="40" height="12" fill="#689cc5" stroke="#5e6fa3" stroke-width="0.8" transform="rotate(45 280 116)"/>

          <animateTransform attributeName="transform" type="translate" values="0 0;-256 256"
            keyTimes="0;1" repeatCount="indefinite" dur="5s"></animateTransform>
        </g>
      </g>
    </pattern>
  </defs>
  <rect x="0" y="0" width="1084" height="322" fill="url(#filmstrip-blue-pattern)"></rect>
</svg>
